<svg width="1003" height="588" viewBox="0 0 1003 588" fill="none" xmlns="http://www.w3.org/2000/svg">
<g clip-path="url(#clip0_25_2)">
<path d="M324.125 172.27H40.2204C27.8074 172.271 17.7446 182.333 17.7446 194.746V250.343C17.7446 264.539 29.5737 273.057 46.1348 276.369C62.6617 279.674 92.7299 290.519 92.8542 290.564H40.2204L39.1819 290.552C17.7942 290.009 0.554398 272.77 0.0123088 251.382L0 250.343V194.746C0 172.881 17.449 155.089 39.1819 154.538L40.2204 154.526H324.125V172.27Z" fill="#02A4B3"/>
<path d="M322.13 26.719C350.465 12.9203 385.715 34.8732 386.293 80.8788L386.328 83.0503C387.291 128.583 400.333 170.32 400.333 170.32C400.333 170.32 335.008 139.443 308.718 96.7174L308.104 95.7057C289.939 65.3392 300.991 37.4689 321.462 27.0518L322.13 26.719ZM330.254 44.3299C320.88 49.1 311.694 63.9406 324.743 85.754L325.249 86.5887C335.443 103.142 353.657 118.684 371.579 131.001C369.138 116.28 367.132 99.0065 366.908 81.1236C366.68 62.937 359.698 51.9313 352.666 46.637C345.67 41.37 337.513 40.6357 330.254 44.3299Z" fill="#02A4B3"/>
<path d="M521.178 15.0971C550.002 38.5816 532.916 85.3846 495.148 111.098L487.875 116.042C450.914 141.123 406.146 170.946 406.146 170.946C406.146 170.946 406.598 85.3518 439.311 35.7369L440.089 34.5708C463.601 -0.13365 499.057 -2.21883 520.489 14.5462L521.178 15.0971ZM508.545 29.8158C496.92 20.7226 474.061 18.9918 456.14 45.4455L455.475 46.4381C441.63 67.4503 433.842 97.5007 429.722 124.246C429.278 127.124 428.882 129.935 428.527 132.658C445.509 121.272 466.315 107.276 484.237 95.074C500.156 84.2361 510.819 69.4113 514.665 56.3601C518.361 43.8159 515.554 35.2993 508.545 29.8158Z" fill="#02A4B3"/>
<path d="M557.64 130.5C546.362 119.554 547.309 97.4395 547.309 97.4395C547.309 97.4395 534.259 123.677 492.934 143.472C445.152 166.36 413.003 169.917 413.003 169.917C413.003 169.917 445.424 180.646 503.537 169.917C561.65 159.189 598.965 139.4 598.965 139.4C598.965 139.4 570.232 142.72 557.64 130.5Z" fill="#02A4B3"/>
<path d="M247.702 130.5C258.807 119.554 257.875 97.4395 257.875 97.4395C257.875 97.4395 271.527 123.677 312.216 143.472C359.263 166.36 390.115 169.917 390.115 169.917C390.115 169.917 353.374 180.646 296.155 169.917C238.935 159.189 207.013 139.4 207.013 139.4C207.013 139.4 235.304 142.72 247.702 130.5Z" fill="#02A4B3"/>
<path d="M1002.83 385.307C1002.4 386.171 1001.48 388.006 1000.08 390.812C998.78 393.51 997.053 396.64 994.895 400.202C992.844 403.763 990.416 407.487 987.609 411.372C984.803 415.258 981.673 418.82 978.219 422.057C974.766 425.295 971.042 427.994 967.049 430.152C963.055 432.203 958.846 433.228 954.421 433.228C948.161 433.228 942.872 431.232 938.555 427.238C934.346 423.245 931.27 418.226 929.327 412.182C925.658 418.334 921.287 423.245 916.214 426.914C911.141 430.476 906.068 432.257 900.996 432.257C897.002 432.257 893.387 431.555 890.149 430.152C886.911 428.641 884.159 426.591 881.892 424C879.626 421.302 877.845 418.172 876.55 414.61C875.362 411.049 874.769 407.163 874.769 402.954C874.769 394.535 876.172 387.142 878.978 380.774C881.892 374.299 885.562 368.902 889.987 364.585C894.412 360.268 899.269 357.03 904.557 354.871C909.954 352.713 915.135 351.633 920.099 351.633C923.445 351.633 926.521 352.119 929.327 353.09C932.133 353.954 934.508 354.925 936.451 356.004C938.501 357.084 940.066 358.109 941.146 359.08C942.225 359.944 942.819 360.43 942.926 360.538C944.114 361.941 944.707 363.398 944.707 364.909C944.707 366.528 944.114 367.985 942.926 369.28C941.739 370.467 940.336 371.061 938.717 371.061C936.99 371.061 935.533 370.467 934.346 369.28C934.13 369.064 933.644 368.686 932.889 368.147C932.133 367.499 931.108 366.851 929.813 366.204C928.518 365.556 926.953 365.017 925.118 364.585C923.391 364.045 921.394 363.775 919.128 363.775C915.782 363.775 912.22 364.531 908.443 366.042C904.665 367.553 901.212 369.927 898.082 373.165C894.952 376.295 892.307 380.289 890.149 385.145C888.098 389.894 887.073 395.561 887.073 402.144C887.073 404.195 887.289 406.3 887.72 408.458C888.152 410.509 888.908 412.398 889.987 414.125C891.066 415.852 892.523 417.255 894.358 418.334C896.193 419.413 898.459 419.953 901.158 419.953C903.1 419.953 905.313 419.305 907.795 418.01C910.386 416.715 912.814 414.718 915.081 412.02C917.455 409.322 919.56 405.922 921.394 401.821C923.337 397.719 924.686 392.862 925.442 387.25C925.658 385.739 926.359 384.498 927.546 383.527C928.734 382.447 930.137 381.908 931.756 381.908C933.267 381.908 934.562 382.501 935.641 383.688C936.828 384.876 937.476 386.225 937.584 387.736C937.692 389.786 937.908 392.701 938.232 396.478C938.555 400.148 939.257 403.817 940.336 407.487C941.523 411.157 943.25 414.34 945.517 417.039C947.783 419.737 950.913 421.086 954.907 421.086C957.497 421.086 960.033 420.385 962.516 418.981C965.106 417.578 967.588 415.744 969.963 413.477C972.445 411.103 974.766 408.458 976.924 405.544C979.191 402.522 981.242 399.5 983.076 396.478C984.911 393.456 986.53 390.542 987.933 387.736C989.336 384.93 990.523 382.501 991.495 380.451C992.035 379.263 992.79 378.346 993.761 377.698C994.841 377.051 995.974 376.727 997.161 376.727C998.996 376.727 1000.45 377.429 1001.53 378.832C1002.72 380.127 1003.31 381.53 1003.31 383.041C1003.31 383.796 1003.15 384.552 1002.83 385.307Z" fill="#C965FF"/>
<path d="M793.983 363.939C793.551 366.853 793.012 369.606 792.364 372.196C791.717 374.678 791.069 376.891 790.421 378.834C789.882 380.668 789.396 382.179 788.964 383.367C788.533 384.554 788.263 385.201 788.155 385.309C787.076 387.792 785.187 389.033 782.489 389.033C780.978 389.033 779.574 388.493 778.279 387.414C776.984 386.227 776.337 384.77 776.337 383.043C776.337 382.395 776.444 381.91 776.66 381.586C776.876 381.262 777.2 380.614 777.632 379.643C778.063 378.672 778.603 377.053 779.251 374.786C779.898 372.52 780.708 369.012 781.679 364.263C779.844 364.263 777.956 364.209 776.013 364.101C774.07 363.993 772.289 363.615 770.67 362.968C768.943 362.32 767.54 361.295 766.461 359.892C765.382 358.489 764.842 356.546 764.842 354.064C764.842 352.229 765.382 349.746 766.461 346.617C767.432 343.487 768.781 340.411 770.508 337.389C772.235 334.366 774.178 331.776 776.337 329.618C778.495 327.351 780.654 326.218 782.812 326.218C785.295 326.218 787.291 327.135 788.802 328.97C790.421 330.805 791.663 333.071 792.526 335.77C793.389 338.36 793.983 341.112 794.307 344.026C794.739 346.94 794.954 349.477 794.954 351.635C796.789 351.635 798.57 351.635 800.297 351.635C802.132 351.527 803.859 351.473 805.478 351.473C811.63 351.473 816.325 352.822 819.562 355.521C822.8 358.219 824.419 362.644 824.419 368.796C824.419 371.278 824.257 373.869 823.934 376.567C823.61 379.265 823.232 382.071 822.8 384.986C822.369 387.792 821.991 390.598 821.667 393.404C821.343 396.21 821.181 398.962 821.181 401.661C821.181 405.546 821.721 408.784 822.8 411.374C823.88 413.857 825.229 415.853 826.848 417.364C828.467 418.875 830.194 419.955 832.028 420.602C833.863 421.142 835.536 421.412 837.047 421.412C841.688 421.412 846.059 419.901 850.161 416.879C854.262 413.857 858.039 410.241 861.493 406.032C864.947 401.715 868.023 397.182 870.721 392.433C873.527 387.684 875.848 383.528 877.683 379.967C878.222 378.995 878.978 378.24 879.949 377.7C880.921 377.161 881.946 376.891 883.025 376.891C884.968 376.891 886.479 377.538 887.558 378.834C888.637 380.021 889.177 381.37 889.177 382.881C889.177 383.96 888.961 384.932 888.53 385.795C886.047 390.22 883.133 395.239 879.787 400.851C876.549 406.356 872.826 411.536 868.617 416.393C864.407 421.25 859.658 425.351 854.37 428.697C849.189 432.043 843.469 433.716 837.209 433.716C833.323 433.716 829.654 432.96 826.2 431.449C822.746 430.046 819.724 427.996 817.134 425.297C814.652 422.491 812.655 419.091 811.144 415.098C809.633 410.997 808.877 406.41 808.877 401.337C808.877 395.94 809.417 390.598 810.496 385.309C811.576 379.913 812.115 374.786 812.115 369.929C812.115 367.879 811.63 366.368 810.658 365.396C809.795 364.317 807.798 363.777 804.668 363.777C803.157 363.777 801.484 363.777 799.649 363.777C797.923 363.777 796.034 363.831 793.983 363.939ZM783.136 351.959C783.136 351.204 783.082 350.232 782.974 349.045C782.974 347.75 782.866 346.509 782.65 345.321C782.543 344.134 782.327 343.109 782.003 342.245C781.787 341.382 781.517 340.95 781.193 340.95C780.87 340.95 780.438 341.382 779.898 342.245C779.467 343.001 778.981 343.972 778.441 345.159C777.902 346.239 777.416 347.426 776.984 348.721C776.552 350.016 776.229 351.096 776.013 351.959H783.136Z" fill="#C965FF"/>
<path d="M693.284 363.939C692.853 366.853 692.313 369.606 691.665 372.196C691.018 374.678 690.37 376.891 689.723 378.834C689.183 380.668 688.697 382.179 688.265 383.367C687.834 384.554 687.564 385.201 687.456 385.309C686.377 387.792 684.488 389.033 681.79 389.033C680.279 389.033 678.876 388.493 677.58 387.414C676.285 386.227 675.638 384.77 675.638 383.043C675.638 382.395 675.746 381.91 675.961 381.586C676.177 381.262 676.501 380.614 676.933 379.643C677.365 378.672 677.904 377.053 678.552 374.786C679.199 372.52 680.009 369.012 680.98 364.263C679.145 364.263 677.257 364.209 675.314 364.101C673.371 363.993 671.59 363.615 669.971 362.968C668.245 362.32 666.841 361.295 665.762 359.892C664.683 358.489 664.143 356.546 664.143 354.064C664.143 352.229 664.683 349.746 665.762 346.617C666.734 343.487 668.083 340.411 669.81 337.389C671.536 334.366 673.479 331.776 675.638 329.618C677.796 327.351 679.955 326.218 682.113 326.218C684.596 326.218 686.593 327.135 688.104 328.97C689.723 330.805 690.964 333.071 691.827 335.77C692.691 338.36 693.284 341.112 693.608 344.026C694.04 346.94 694.256 349.477 694.256 351.635C696.09 351.635 697.871 351.635 699.598 351.635C701.433 351.527 703.16 351.473 704.779 351.473C710.931 351.473 715.626 352.822 718.864 355.521C722.101 358.219 723.72 362.644 723.72 368.796C723.72 371.278 723.559 373.869 723.235 376.567C722.911 379.265 722.533 382.071 722.101 384.986C721.67 387.792 721.292 390.598 720.968 393.404C720.644 396.21 720.483 398.962 720.483 401.661C720.483 405.546 721.022 408.784 722.101 411.374C723.181 413.857 724.53 415.853 726.149 417.364C727.768 418.875 729.495 419.955 731.329 420.602C733.164 421.142 734.837 421.412 736.348 421.412C740.989 421.412 745.36 419.901 749.462 416.879C753.563 413.857 757.341 410.241 760.794 406.032C764.248 401.715 767.324 397.182 770.022 392.433C772.828 387.684 775.149 383.528 776.984 379.967C777.523 378.995 778.279 378.24 779.25 377.7C780.222 377.161 781.247 376.891 782.326 376.891C784.269 376.891 785.78 377.538 786.859 378.834C787.939 380.021 788.478 381.37 788.478 382.881C788.478 383.96 788.262 384.932 787.831 385.795C785.348 390.22 782.434 395.239 779.088 400.851C775.851 406.356 772.127 411.536 767.918 416.393C763.708 421.25 758.959 425.351 753.671 428.697C748.49 432.043 742.77 433.716 736.51 433.716C732.625 433.716 728.955 432.96 725.501 431.449C722.048 430.046 719.025 427.996 716.435 425.297C713.953 422.491 711.956 419.091 710.445 415.098C708.934 410.997 708.179 406.41 708.179 401.337C708.179 395.94 708.718 390.598 709.797 385.309C710.877 379.913 711.416 374.786 711.416 369.929C711.416 367.879 710.931 366.368 709.959 365.396C709.096 364.317 707.099 363.777 703.969 363.777C702.458 363.777 700.785 363.777 698.951 363.777C697.224 363.777 695.335 363.831 693.284 363.939ZM682.437 351.959C682.437 351.204 682.383 350.232 682.275 349.045C682.275 347.75 682.167 346.509 681.952 345.321C681.844 344.134 681.628 343.109 681.304 342.245C681.088 341.382 680.818 340.95 680.495 340.95C680.171 340.95 679.739 341.382 679.199 342.245C678.768 343.001 678.282 343.972 677.742 345.159C677.203 346.239 676.717 347.426 676.285 348.721C675.854 350.016 675.53 351.096 675.314 351.959H682.437Z" fill="#C965FF"/>
<path d="M610.88 412.669C613.147 415.799 616.061 418.336 619.623 420.278C623.184 422.113 627.556 423.031 632.736 423.031C638.025 423.031 642.828 421.79 647.145 419.307C651.462 416.717 655.401 413.371 658.963 409.27C662.525 405.168 665.709 400.581 668.515 395.509C671.321 390.436 673.857 385.363 676.124 380.291C676.664 379.103 677.419 378.24 678.39 377.7C679.362 377.053 680.441 376.729 681.628 376.729C683.463 376.729 684.92 377.376 686 378.672C687.187 379.967 687.78 381.37 687.78 382.881C687.78 383.42 687.726 383.906 687.618 384.338C687.511 384.662 687.349 385.039 687.133 385.471C679.686 401.876 671.537 414.234 662.687 422.545C653.944 430.856 644.015 435.119 632.898 435.335C625.775 435.335 619.623 433.932 614.442 431.125C609.261 428.427 604.998 424.919 601.652 420.602C598.307 416.177 595.824 411.212 594.205 405.708C592.586 400.204 591.777 394.699 591.777 389.195C591.777 383.69 592.424 378.618 593.72 373.977C595.123 369.336 597.065 365.288 599.548 361.835C602.138 358.381 605.16 355.683 608.614 353.74C612.176 351.797 616.061 350.826 620.27 350.826C622.753 350.826 625.181 351.365 627.556 352.445C630.038 353.416 632.251 354.873 634.193 356.816C636.136 358.651 637.701 360.917 638.888 363.615C640.075 366.314 640.669 369.39 640.669 372.843C640.669 377.268 639.914 381.424 638.403 385.309C636.891 389.195 634.787 392.81 632.089 396.156C629.498 399.502 626.368 402.578 622.699 405.384C619.029 408.19 615.09 410.619 610.88 412.669ZM606.024 402.146C609.369 400.743 612.391 398.962 615.09 396.804C617.896 394.645 620.27 392.271 622.213 389.68C624.156 387.09 625.667 384.392 626.746 381.586C627.825 378.672 628.365 375.757 628.365 372.843C628.365 369.605 627.556 367.177 625.937 365.558C624.318 363.831 622.429 362.968 620.27 362.968C617.356 362.968 614.874 363.777 612.823 365.396C610.772 367.015 609.1 369.12 607.804 371.71C606.509 374.3 605.538 377.215 604.89 380.452C604.351 383.582 604.081 386.712 604.081 389.842C604.081 391.785 604.243 393.836 604.567 395.994C604.998 398.153 605.484 400.204 606.024 402.146Z" fill="#C965FF"/>
<path d="M645.202 268.421C645.202 270.148 644.608 271.551 643.421 272.63C642.234 273.602 640.777 274.087 639.05 274.087H556.969V275.868C556.969 282.452 556.484 289.467 555.512 296.914C554.541 304.362 553.192 311.809 551.465 319.256C549.846 326.595 547.957 333.772 545.799 340.788C543.748 347.803 541.589 354.279 539.323 360.215C537.164 366.151 535.006 371.332 532.847 375.757C530.688 380.074 528.746 383.312 527.019 385.471C528.422 390.436 530.095 395.077 532.038 399.394C533.98 403.603 536.139 407.327 538.513 410.564C540.996 413.694 543.64 416.177 546.446 418.012C549.252 419.846 552.274 420.764 555.512 420.764C559.29 420.764 563.013 419.199 566.683 416.069C570.461 412.831 573.914 409.053 577.044 404.736C580.282 400.311 583.088 395.886 585.463 391.461C587.945 386.928 589.726 383.312 590.805 380.614C591.885 378.024 593.773 376.728 596.472 376.728C598.306 376.728 599.764 377.376 600.843 378.671C602.03 379.966 602.624 381.369 602.624 382.88C602.624 383.636 602.462 384.391 602.138 385.147C601.814 385.902 601.005 387.629 599.71 390.328C598.522 393.026 596.903 396.156 594.853 399.718C592.91 403.279 590.589 407.057 587.891 411.05C585.301 414.936 582.333 418.497 578.987 421.735C575.749 424.973 572.241 427.671 568.464 429.83C564.686 431.989 560.693 433.068 556.484 433.068C549.037 433.068 542.345 430.639 536.409 425.783C530.473 420.926 525.4 414.126 521.191 405.384C517.089 396.642 513.959 386.28 511.801 374.3C509.642 362.32 508.563 349.206 508.563 334.96C508.563 331.398 508.617 327.243 508.725 322.494C508.833 317.637 509.049 312.564 509.372 307.276C509.696 301.879 510.182 296.375 510.829 290.762C511.477 285.042 512.34 279.484 513.42 274.087H513.499C511.772 274.087 510.315 273.602 509.128 272.63C507.941 271.551 507.347 270.148 507.347 268.421C507.347 266.694 507.941 265.345 509.128 264.374C510.315 263.294 511.772 262.755 513.499 262.755H516.172C517.251 258.869 518.492 255.307 519.895 252.07C521.406 248.832 523.079 246.025 524.914 243.651C526.857 241.277 528.962 239.442 531.228 238.147C533.603 236.744 536.193 236.042 538.999 236.042C541.697 236.042 544.018 236.744 545.961 238.147C548.011 239.442 549.738 241.277 551.141 243.651C552.544 246.025 553.624 248.832 554.379 252.07C555.242 255.307 555.89 258.869 556.322 262.755H639.05C640.777 262.755 642.234 263.294 643.421 264.374C644.608 265.345 645.202 266.694 645.202 268.421ZM523.295 369.281C526.533 362.158 529.447 354.495 532.038 346.292C534.736 337.982 537.002 329.617 538.837 321.199C540.78 312.78 542.237 304.523 543.208 296.429C544.288 288.334 544.827 280.887 544.827 274.087H525.724C524.213 280.779 522.971 289.089 522 299.019C521.137 308.841 520.705 320.821 520.705 334.96C520.705 342.839 520.921 349.476 521.353 354.873C521.784 360.161 522.432 364.964 523.295 369.281ZM538.351 248.184C537.38 248.184 535.977 249.263 534.142 251.422C532.307 253.473 530.473 257.25 528.638 262.755H544.18C543.64 258.222 542.831 254.66 541.751 252.07C540.78 249.479 539.647 248.184 538.351 248.184Z" fill="#C965FF"/>
<path d="M452.871 438.409C460.858 434.848 468.089 430.746 474.565 426.105C481.149 421.464 486.977 416.608 492.05 411.535C497.23 406.354 501.601 401.12 505.163 395.831C508.833 390.435 511.747 385.308 513.905 380.451C514.877 378.077 516.712 376.889 519.41 376.889C521.245 376.889 522.702 377.537 523.781 378.832C524.968 380.019 525.562 381.368 525.562 382.879C525.562 383.743 525.4 384.552 525.076 385.308C522.702 390.596 519.68 396.101 516.01 401.821C512.34 407.434 507.861 412.992 502.573 418.496C497.392 423.893 491.294 429.127 484.279 434.2C477.263 439.273 469.222 443.914 460.156 448.123C465.985 454.167 471.057 460.859 475.374 468.198C479.692 475.645 483.253 483.362 486.06 491.349C488.974 499.336 491.132 507.376 492.535 515.471C494.046 523.674 494.802 531.499 494.802 538.946C494.802 545.746 494.154 552.113 492.859 558.05C491.672 564.094 489.837 569.328 487.355 573.753C484.98 578.178 482.066 581.632 478.612 584.115C475.159 586.705 471.219 588 466.794 588C460.318 588 455.3 585.572 451.738 580.715C448.176 575.966 445.532 569.328 443.805 560.802C442.186 552.383 441.215 542.4 440.891 530.851C440.675 519.411 440.567 506.945 440.567 493.454C440.567 486.762 440.567 478.937 440.567 469.979C440.567 461.129 440.567 451.577 440.567 441.323C440.675 431.178 440.729 420.547 440.729 409.43C440.837 398.206 440.945 386.981 441.053 375.756C441.161 364.531 441.269 353.523 441.377 342.73C441.485 331.829 441.646 321.521 441.862 311.808C442.186 293.244 442.834 276.677 443.805 262.106C444.776 247.536 446.341 235.232 448.5 225.194C450.659 215.157 453.573 207.548 457.242 202.367C461.02 197.078 465.769 194.434 471.489 194.434C476.022 194.434 479.854 195.729 482.984 198.32C486.114 200.802 488.65 204.202 490.593 208.519C492.535 212.728 493.938 217.693 494.802 223.413C495.665 229.134 496.097 235.124 496.097 241.384C496.097 254.551 494.964 267.287 492.697 279.591C490.431 291.895 487.355 303.821 483.469 315.369C479.584 326.918 474.997 338.197 469.708 349.205C464.528 360.214 458.969 371.061 453.033 381.746C453.033 386.171 453.033 390.974 453.033 396.155C453.033 401.228 453.033 406.354 453.033 411.535C453.033 416.608 452.979 421.518 452.871 426.267C452.871 430.908 452.871 434.956 452.871 438.409ZM453.357 356.814C457.782 348.504 461.829 339.762 465.499 330.588C469.276 321.306 472.514 311.754 475.213 301.932C477.911 292.111 480.015 282.073 481.526 271.82C483.038 261.566 483.793 251.259 483.793 240.898C483.793 235.717 483.523 231.022 482.984 226.813C482.552 222.604 481.796 219.042 480.717 216.128C479.746 213.106 478.45 210.785 476.832 209.166C475.321 207.44 473.54 206.576 471.489 206.576C469.33 206.576 467.442 207.871 465.823 210.462C464.204 213.052 462.801 216.506 461.613 220.823C460.426 225.14 459.401 230.105 458.537 235.717C457.782 241.33 457.134 247.212 456.595 253.364C456.055 259.408 455.623 265.506 455.3 271.658C454.976 277.702 454.706 283.422 454.49 288.819C454.382 294.107 454.274 298.802 454.166 302.904C454.166 307.005 454.166 310.081 454.166 312.132C454.058 316.449 453.95 320.28 453.843 323.626C453.843 326.972 453.789 330.264 453.681 333.502C453.573 336.74 453.465 340.193 453.357 343.863C453.357 347.532 453.357 351.85 453.357 356.814ZM452.871 458.322C452.871 465.122 452.817 471.436 452.709 477.264C452.709 483.2 452.709 488.597 452.709 493.454C452.709 503.491 452.763 513.421 452.871 523.242C452.979 533.064 453.465 541.86 454.328 549.631C455.3 557.51 456.703 563.824 458.537 568.573C460.48 573.43 463.232 575.858 466.794 575.858C470.032 575.858 472.676 574.401 474.727 571.487C476.778 568.573 478.343 565.119 479.422 561.126C480.609 557.132 481.419 553.031 481.85 548.822C482.282 544.72 482.498 541.374 482.498 538.784C482.498 532.2 481.85 525.293 480.555 518.062C479.368 510.83 477.479 503.653 474.889 496.53C472.406 489.514 469.33 482.715 465.661 476.131C461.991 469.547 457.728 463.611 452.871 458.322Z" fill="#C965FF"/>
<path d="M370.259 397.649C370.259 382.107 385.154 273.363 387.096 257.929C387.563 254.661 390.263 252.263 393.572 252.263C399.704 252.263 399.206 259.715 398.753 264.243C397.845 273.319 384.29 364.623 383.859 369.156C383.535 373.581 383.211 378.33 382.887 383.402C382.671 388.367 382.563 392.954 382.563 397.163C382.582 394.087 383.103 407.524 384.182 411.086C385.37 414.54 386.827 417.238 388.553 419.181C390.388 421.123 392.277 422.419 394.22 423.066C396.27 423.714 398.213 424.037 400.048 424.037C403.07 424.037 406.2 422.958 409.438 420.8C412.676 418.641 415.968 415.619 419.313 411.734C422.767 407.848 426.221 403.207 429.675 397.811C433.128 392.306 436.528 386.208 439.874 379.517C440.414 378.437 441.169 377.628 442.141 377.088C443.112 376.441 444.191 376.117 445.379 376.117C447.105 376.117 448.508 376.765 449.588 378.06C450.775 379.355 451.369 380.758 451.369 382.269C451.369 383.348 451.153 384.266 450.721 385.021C449.426 387.504 447.807 390.526 445.864 394.087C443.921 397.649 441.709 401.318 439.227 405.096C436.744 408.873 433.992 412.651 430.97 416.428C428.056 420.098 424.926 423.444 421.58 426.466C418.234 429.38 414.726 431.754 411.057 433.589C407.387 435.424 403.664 436.341 399.886 436.341C395.029 436.341 390.766 435.316 387.096 433.265C383.427 431.215 380.297 428.463 377.707 425.009C375.224 421.555 373.335 417.508 372.04 412.867C370.853 408.118 370.259 403.045 370.259 397.649Z" fill="#02A4B3"/>
<path d="M417.513 212.239C417.513 217.283 415.721 221.597 412.138 225.18C408.686 228.632 404.439 230.357 399.395 230.357C394.351 230.357 390.037 228.632 386.453 225.18C383.002 221.597 381.276 217.283 381.276 212.239C381.276 209.717 381.741 207.394 382.67 205.27C383.599 203.013 384.86 201.089 386.453 199.496C388.179 197.77 390.103 196.443 392.227 195.514C394.484 194.585 396.873 194.12 399.395 194.12C401.917 194.12 404.24 194.585 406.364 195.514C408.62 196.443 410.545 197.77 412.138 199.496C413.863 201.089 415.19 203.013 416.12 205.27C417.049 207.394 417.513 209.717 417.513 212.239Z" fill="#02A4B3"/>
<path d="M357.838 278.445C357.838 280.064 357.245 281.521 356.058 282.816C354.978 284.111 353.575 284.759 351.848 284.759C350.229 284.759 348.826 284.219 347.639 283.14C346.452 282.061 345.75 280.604 345.534 278.769C345.426 278.337 345.157 276.287 344.725 272.617C344.401 268.947 343.322 264.468 341.487 259.18C339.76 253.783 337.062 248.063 333.392 242.019C329.723 235.867 324.65 230.201 318.174 225.02C311.806 219.839 303.712 215.522 293.89 212.068C284.068 208.615 272.142 206.888 258.111 206.888C245.699 206.888 233.179 208.776 220.552 212.554C208.032 216.224 195.998 221.458 184.449 228.258C172.901 234.949 162.108 242.99 152.07 252.38C142.033 261.662 133.29 271.915 125.843 283.14C118.504 294.365 112.676 306.345 108.359 319.081C104.149 331.816 102.045 344.93 102.045 358.421C102.045 370.617 103.718 381.086 107.064 389.829C110.409 398.463 115.05 405.532 120.986 411.037C126.923 416.541 133.884 420.589 141.871 423.179C149.966 425.661 158.654 426.903 167.936 426.903C184.017 426.903 199.02 424.15 212.943 418.646C226.974 413.034 239.925 405.532 251.797 396.143C263.778 386.645 274.678 375.636 284.5 363.116C294.322 350.488 303.118 337.213 310.889 323.29C311.752 310.123 313.263 300.085 315.422 293.178C317.689 286.162 321.034 282.654 325.459 282.654C327.942 282.654 329.992 283.68 331.611 285.73C333.338 287.781 334.202 290.425 334.202 293.663C334.202 297.225 333.284 301.758 331.45 307.262C329.615 312.767 326.809 319.135 323.031 326.366C322.707 331.439 322.545 336.889 322.545 342.717C322.545 351.244 322.869 360.58 323.517 370.725C324.272 380.871 325.405 391.663 326.917 403.104C331.45 400.838 334.957 399.219 337.44 398.247C340.03 397.168 341.919 396.466 343.106 396.143C344.293 395.711 345.049 395.549 345.372 395.657C345.696 395.657 345.966 395.657 346.182 395.657C347.801 395.657 349.204 396.251 350.391 397.438C351.686 398.517 352.334 399.974 352.334 401.809C352.334 403.104 351.956 404.291 351.201 405.371C350.445 406.342 349.42 407.043 348.125 407.475C347.909 407.583 346.02 408.339 342.458 409.742C339.005 411.037 334.364 413.142 328.535 416.056C329.075 421.884 329.507 427.766 329.831 433.702C330.154 439.638 330.316 445.628 330.316 451.672C330.316 465.919 329.291 479.518 327.24 492.47C325.19 505.421 321.79 516.808 317.041 526.63C312.4 536.451 306.194 544.222 298.423 549.942C290.652 555.771 281.1 558.685 269.768 558.685C264.155 558.685 258.975 557.713 254.226 555.771C249.477 553.828 245.376 551.13 241.922 547.676C238.468 544.222 235.77 540.067 233.827 535.21C231.884 530.461 230.913 525.227 230.913 519.506C230.913 511.412 232.262 503.425 234.96 495.546C237.767 487.667 241.436 480.058 245.969 472.719C250.61 465.38 255.899 458.418 261.835 451.834C267.771 445.359 273.869 439.368 280.129 433.864C286.389 428.36 292.541 423.503 298.585 419.294C304.737 415.084 310.349 411.684 315.422 409.094C314.019 398.301 312.886 387.724 312.022 377.363C311.159 366.894 310.619 356.748 310.403 346.927C301.013 361.929 290.652 375.15 279.319 386.591C268.095 398.031 256.33 407.637 244.026 415.408C231.722 423.179 219.041 429.061 205.981 433.055C193.03 436.94 180.132 438.883 167.288 438.883C155.632 438.883 145.055 437.156 135.557 433.702C126.059 430.14 117.91 424.96 111.111 418.16C104.311 411.361 99.0767 402.942 95.4071 392.905C91.7375 382.867 89.9027 371.319 89.9027 358.259C89.9027 344.444 92.0613 330.845 96.3785 317.462C100.696 303.971 106.686 291.181 114.349 279.093C122.012 266.897 131.078 255.672 141.547 245.419C152.124 235.165 163.619 226.315 176.031 218.868C188.551 211.313 201.718 205.431 215.533 201.221C229.456 196.904 243.649 194.746 258.111 194.746C272.034 194.746 284.122 196.365 294.376 199.602C304.629 202.732 313.317 206.78 320.441 211.745C327.672 216.601 333.5 221.944 337.925 227.772C342.458 233.492 346.02 238.943 348.61 244.123C350.769 248.549 352.442 252.812 353.629 256.913C354.924 261.014 355.842 264.63 356.381 267.76C357.029 270.89 357.407 273.426 357.515 275.369C357.73 277.312 357.838 278.337 357.838 278.445ZM316.879 422.531C311.483 425.553 305.87 429.169 300.042 433.378C294.322 437.48 288.709 442.013 283.205 446.978C277.808 451.942 272.682 457.285 267.825 463.005C262.968 468.725 258.705 474.661 255.035 480.813C251.366 486.965 248.452 493.279 246.293 499.755C244.242 506.339 243.217 512.923 243.217 519.506C243.217 523.608 243.865 527.277 245.16 530.515C246.455 533.861 248.29 536.667 250.664 538.934C253.039 541.308 255.845 543.143 259.083 544.438C262.321 545.733 265.882 546.381 269.768 546.381C284.986 546.381 296.858 538.286 305.385 522.097C313.911 506.015 318.174 482.486 318.174 451.511C318.174 446.87 318.066 442.121 317.85 437.264C317.635 432.515 317.311 427.604 316.879 422.531Z" fill="#C965FF"/>
<path d="M35.4889 438.43C35.4891 450.843 45.5518 460.906 57.9647 460.906H231.329C227.36 466.784 223.762 472.701 220.55 478.649H57.9647L56.9262 478.637C35.5386 478.095 18.2989 460.856 17.7566 439.469L17.7443 438.43V283.466H35.4889V438.43Z" fill="#02A4B3"/>
</g>
<defs>
<clipPath id="clip0_25_2">
<rect width="1003" height="588" fill="white"/>
</clipPath>
</defs>
</svg>
